<svg id="step3" viewBox="0 0 343.77 191.94"><title>step3</title><path d="M96.13,191.94a95.82,95.82,0,1,1,95.81-95.82A95.92,95.92,0,0,1,96.13,191.94Zm0-190.63a94.82,94.82,0,1,0,94.81,94.81A94.92,94.92,0,0,0,96.13,1.31Z"></path><path d="M343.77,191.94H0V0H343.77ZM1,190.94H342.77V1H1Z"></path><path d="M271.29,191.92a92.11,92.11,0,0,1-29.63-4.54A61.72,61.72,0,0,1,218.91,174a60.72,60.72,0,0,1-14.59-21.81c-3.46-8.61-5.21-18.63-5.21-29.79v-.5H255.3l0,.47c.35,5.71,1.91,10.25,4.66,13.51a13.45,13.45,0,0,0,10.77,4.87c4.64,0,8.42-1.21,11.23-3.6a12.11,12.11,0,0,0,4.2-9.71,11.53,11.53,0,0,0-4.46-9.43c-3-2.39-7.22-3.61-12.56-3.61h-8.73V73.57H267a13.62,13.62,0,0,0,9.62-3.45,11.26,11.26,0,0,0,3.69-8.53,11.14,11.14,0,0,0-3.19-7.76c-2.1-2.27-5.15-3.42-9.05-3.42-4.29,0-7.37,1.49-9.41,4.55a20.85,20.85,0,0,0-3.37,10.9l0,.48h-53v-.5a72.63,72.63,0,0,1,5-27.41A57.5,57.5,0,0,1,221,18,60,60,0,0,1,242.45,5.23,83.7,83.7,0,0,1,270.23.82a84.83,84.83,0,0,1,26.57,4,68.23,68.23,0,0,1,21,11,50.17,50.17,0,0,1,13.81,16.76,46.2,46.2,0,0,1,5,21.06c0,15.4-6.45,27.7-19.17,36.58,8.52,4.38,15.08,9.89,19.48,16.37,4.55,6.69,6.86,15.14,6.86,25.11a55,55,0,0,1-20.36,43.53,71.29,71.29,0,0,1-23,12.3A93,93,0,0,1,271.29,191.92Zm-71.18-69c0,10.83,1.78,20.56,5.14,28.91a59.82,59.82,0,0,0,14.35,21.46A60.65,60.65,0,0,0,242,186.43a97.54,97.54,0,0,0,58.09.13,70.33,70.33,0,0,0,22.68-12.12,54,54,0,0,0,20-42.76c0-9.77-2.25-18-6.68-24.54S324.94,95.08,316.2,90.71l-.76-.38.71-.48C329,81.14,335.57,69,335.57,53.62A45.09,45.09,0,0,0,330.71,33a49,49,0,0,0-13.53-16.43,67.3,67.3,0,0,0-20.69-10.8,88.91,88.91,0,0,0-53.71.39,58.92,58.92,0,0,0-21.06,12.51,56.53,56.53,0,0,0-13.55,20.13,71.36,71.36,0,0,0-4.88,26.53h51.07a21.66,21.66,0,0,1,3.51-10.93c2.21-3.32,5.66-5,10.24-5,4.19,0,7.48,1.26,9.79,3.74a12.38,12.38,0,0,1-.56,17.7h0A14.56,14.56,0,0,1,267,74.57h-5.6v38.82h7.73c5.57,0,10,1.29,13.19,3.83a12.51,12.51,0,0,1,4.83,10.21,13,13,0,0,1-4.56,10.47c-3,2.55-7,3.84-11.87,3.84a14.38,14.38,0,0,1-11.53-5.23c-2.82-3.33-4.45-7.91-4.87-13.62Z"></path><path d="M112.5,101l0-.29a14.25,14.25,0,0,0-.22-1.48.29.29,0,0,1,0-.09q-.17-.77-.39-1.5v0a16.3,16.3,0,0,0-4-6.61l-.26-.26c-.26-.25-.52-.49-.79-.72s-.43-.35-.65-.52l-.53-.4c-.22-.16-.45-.31-.68-.46l-.08,0-2.31-8.81,2.58-5.23a.48.48,0,0,0,0-.48.49.49,0,0,0-.42-.24H87.55a.5.5,0,0,0-.43.24.48.48,0,0,0,0,.48l2.59,5.23-2.32,8.81-.07,0-.69.46-.53.4-.64.52c-.28.23-.54.47-.8.72l-.25.26a16.19,16.19,0,0,0-4,6.61v0q-.22.73-.39,1.5s0,.06,0,.09a14.26,14.26,0,0,0-.23,1.48l0,.29c0,.5-.08,1-.08,1.51a.5.5,0,0,0,.5.5H92.24L95.64,118a.49.49,0,0,0,.49.39h0a.5.5,0,0,0,.49-.4l3.1-15h12.36a.5.5,0,0,0,.5-.5A15.11,15.11,0,0,0,112.5,101ZM88.35,74.82H103.9l-2,4.11H90.38Zm2.3,5.23v0a.54.54,0,0,0,0-.1h10.88s0,0,0,.07l2.07,7.88a16.35,16.35,0,0,0-15.07,0Zm5.46,35.51L93.27,103H98.7ZM80.69,102a.86.86,0,0,1,0-.16,15.55,15.55,0,0,1,.36-2.76c0-.06,0-.12,0-.18a15.33,15.33,0,0,1,2.38-5.26v0a15.46,15.46,0,0,1,1.74-2l.29-.28c.21-.2.43-.4.66-.59s.51-.41.78-.61l.35-.25c.23-.16.46-.32.7-.47a15.35,15.35,0,0,1,16.23,0l.71.47.34.25.79.61.65.59.3.28a15.38,15.38,0,0,1,1.73,2l0,0a15.31,15.31,0,0,1,2.37,5.26,1.16,1.16,0,0,1,0,.18,15.55,15.55,0,0,1,.37,2.76V102Z"></path></svg>
