<svg id="step1" viewBox="0 0 343.77 191.94"><title>step1</title><path d="M96.13,191.94a95.82,95.82,0,1,1,95.81-95.82A95.92,95.92,0,0,1,96.13,191.94Zm0-190.63a94.82,94.82,0,1,0,94.81,94.81A94.92,94.92,0,0,0,96.13,1.31Z"></path><path d="M343.77,191.94H0V0H343.77ZM1,190.94H342.77V1H1Z"></path><path d="M313.49,191.94H253.94V54.72h-30.5V0h90.05Zm-58.55-1h57.55V1H224.44V53.72h30.5Z"></path><path d="M97.57,94.21a.53.53,0,0,0,.35.13.54.54,0,0,0,.39-.17l19-20.84a.62.62,0,0,0,.11-.17.55.55,0,0,0,0-.4.66.66,0,0,0-.12-.17,14.54,14.54,0,0,0-10.52-3.78,14.38,14.38,0,0,0-2.72.39l0,0-6.21-2.28a.51.51,0,0,0-.56.14l-7.32,8a.52.52,0,0,0-.08.58l2.73,5.7-10,15.94h-.1a4.51,4.51,0,0,0,0,9c.13,0,.25,0,.38,0l4.42,11.42H80.61a.53.53,0,0,0-.42.21l-2.08,2.78H75.38a.52.52,0,0,0-.52.53v3.69a.52.52,0,0,0,.52.52H99.61a.52.52,0,0,0,.52-.52v-3.69a.52.52,0,0,0-.52-.53H96.88l-2.08-2.78a.54.54,0,0,0-.42-.21h-6.1L83.77,106a4.47,4.47,0,0,0-.2-8.57l9.24-14.64c0,.42,0,.85,0,1.27A14.49,14.49,0,0,0,97.57,94.21Zm1.51,30.14H75.9v-2.64H99.08Zm-3.51-3.69H79.42l1.45-1.94H94.12Zm-9.76-18.88a3.46,3.46,0,1,1-3.46-3.46A3.46,3.46,0,0,1,85.81,101.78Zm21-31.92.65,0A13.51,13.51,0,0,1,116.13,73l-9.12,10-9.12,10a13.56,13.56,0,0,1,8.87-23.21ZM97.7,68l4.64,1.7a14.59,14.59,0,0,0-9.2,10.56l-2.27-4.74Z"></path></svg>
