<svg id="step4" viewBox="0 0 343.77 191.94"><title>step4</title><path d="M96.13,191.94a95.82,95.82,0,1,1,95.81-95.82A95.92,95.92,0,0,1,96.13,191.94Zm0-190.63a94.82,94.82,0,1,0,94.81,94.81A94.92,94.92,0,0,0,96.13,1.31Z"></path><path d="M343.77,191.94H0V0H343.77ZM1,190.94H342.77V1H1Z"></path><path d="M343.77,191.94H287.31V158.82H200.63V119.23l.06-.12L269.68,0h74.09V110.46h-1V1H270.26L201.63,119.5v38.32h86.68v33.12h54.46V158.32h1Zm-54.91-81H261.08l27.78-55.5Zm-26.16-1h25.16V59.69Z"></path><path d="M117.91,81.8l-7.44-7.45a1.19,1.19,0,0,0-.76-.36h-.11a1.13,1.13,0,0,0-.78.35L76.19,107a1.28,1.28,0,0,0-.33.59L74,116.87a1.17,1.17,0,0,0,.17.87,1.14,1.14,0,0,0,.73.5l.23,0a.86.86,0,0,0,.22,0l9.3-1.85a1.18,1.18,0,0,0,.64-.3l32.63-32.64a1.15,1.15,0,0,0,.34-.82A1.17,1.17,0,0,0,117.91,81.8ZM109.63,75h0ZM75.11,117.26a.15.15,0,0,1-.1-.07.18.18,0,0,1,0-.12l1.78-8.8L84,115.5Zm9.8-2.27-7.66-7.66,28.66-28.66,7.68,7.7Zm32.31-32.24-2.92,2.92L106.61,78,109.54,75a.12.12,0,0,1,.1-.05.2.2,0,0,1,.11.06l7.47,7.47a.17.17,0,0,1,0,.11A.17.17,0,0,1,117.22,82.75Z"></path></svg>
