<svg id="step5" viewBox="0 0 343.77 191.94"><title>step5</title><path d="M96.09,191.94a95.82,95.82,0,1,1,95.82-95.82A95.92,95.92,0,0,1,96.09,191.94Zm0-190.63a94.82,94.82,0,1,0,94.82,94.81A94.92,94.92,0,0,0,96.09,1.31Z"></path><path d="M343.74,191.94H0V0H343.74ZM1,190.94H342.74V1H1Z"></path><path d="M270.51,191.93a94.89,94.89,0,0,1-30.58-4.66,67.31,67.31,0,0,1-23.25-13.17,59.41,59.41,0,0,1-14.93-20.6,68.7,68.7,0,0,1-5.61-26.61v-.51h56.36l0,.44c.35,3,2,5.88,5,8.68s7.05,4.22,12.15,4.22a17.22,17.22,0,0,0,12.68-5,18.11,18.11,0,0,0,0-25,17.5,17.5,0,0,0-12.69-4.9,18.51,18.51,0,0,0-16.13,9l-.18.32L200.7,103l.06-.46L214.94,0H331V49.21H258.18L256,63.36a64.2,64.2,0,0,1,51.56-1,58.54,58.54,0,0,1,19.31,13.33,61.15,61.15,0,0,1,12.46,19.77,65.54,65.54,0,0,1,4.52,24.29,76.26,76.26,0,0,1-5.33,28.78,68.77,68.77,0,0,1-15.05,22.91,67.72,67.72,0,0,1-23.26,15.09A80.27,80.27,0,0,1,270.51,191.93Zm-73.36-64.55a67.48,67.48,0,0,0,5.51,25.71,58.41,58.41,0,0,0,14.68,20.26,66.31,66.31,0,0,0,22.92,13,93.67,93.67,0,0,0,30.25,4.61,79.43,79.43,0,0,0,29.29-5.28,66.68,66.68,0,0,0,22.91-14.87,67.83,67.83,0,0,0,14.83-22.57,75.36,75.36,0,0,0,5.26-28.41,64.4,64.4,0,0,0-4.45-23.92A60.49,60.49,0,0,0,326.1,76.42a57.79,57.79,0,0,0-19-13.09,63.12,63.12,0,0,0-51.59,1.35l-.87.44,2.66-16.91H330V1H215.82l-14,101.24L252.88,113a19.52,19.52,0,0,1,6.5-6.4,19.11,19.11,0,0,1,10.32-2.8A18.44,18.44,0,0,1,283.08,109a19.11,19.11,0,0,1,0,26.45,18.21,18.21,0,0,1-13.39,5.32c-5.36,0-9.68-1.51-12.84-4.49-3-2.83-4.77-5.81-5.25-8.85Z"></path><path d="M122.69,79.39a.48.48,0,0,0-.7,0l-6.6,6.33v-.55a7.05,7.05,0,0,0-7-7H86.41a7.06,7.06,0,0,0-7.06,7v21.93a7.06,7.06,0,0,0,7.06,7h21.93a7.05,7.05,0,0,0,7-7v-20l7.29-7A.5.5,0,0,0,122.69,79.39Zm-8.3,27.7a6.05,6.05,0,0,1-6,6H86.41a6.06,6.06,0,0,1-6.06-6V85.16a6.06,6.06,0,0,1,6.06-6h21.93a6.05,6.05,0,0,1,6,6v1.52L96.42,104l-5.5-6.09a.49.49,0,0,0-.7,0,.48.48,0,0,0,0,.7L96,105a.53.53,0,0,0,.35.17h0a.52.52,0,0,0,.35-.14l17.65-17Z"></path></svg>
