<svg id="step2" viewBox="0 0 343.77 191.94"><title>step2</title><path d="M96.12,191.94a95.82,95.82,0,1,1,95.82-95.82A95.92,95.92,0,0,1,96.12,191.94Zm0-190.63a94.82,94.82,0,1,0,94.82,94.81A94.92,94.92,0,0,0,96.12,1.31Z"></path><path d="M343.77,191.94H0V0H343.77ZM1,190.94H342.77V1H1Z"></path><path d="M343.59,191.94H197.25V145.55l.19-.15L262.1,95.69c7.72-6.11,13.32-11,16.65-14.62a16.87,16.87,0,0,0,4.89-11.61,13.45,13.45,0,0,0-3.92-10.1,13.85,13.85,0,0,0-10-3.8,13.38,13.38,0,0,0-10.89,5c-2.72,3.33-4.19,8.26-4.37,14.64v.48H196.7v-.5a88.67,88.67,0,0,1,5.2-31.28,66.21,66.21,0,0,1,14.64-23.41,64.43,64.43,0,0,1,23-14.78,84.08,84.08,0,0,1,30.2-5.2,87.53,87.53,0,0,1,29.51,4.79,70,70,0,0,1,23.12,13.41,59.83,59.83,0,0,1,15.07,20.68,64.51,64.51,0,0,1,5.34,26.28,66.71,66.71,0,0,1-2.33,17.93,56.33,56.33,0,0,1-7.95,16.59A97.53,97.53,0,0,1,318,116.55a197.65,197.65,0,0,1-21.92,17.16,75.69,75.69,0,0,1-7,4.64c-1.18.68-2.24,1.27-3.21,1.79h57.66Zm-145.34-1H342.59v-49.8H281.74l1.91-.95c1.41-.7,3-1.59,5-2.7a76.88,76.88,0,0,0,6.88-4.59,197.29,197.29,0,0,0,21.82-17.08A97.37,97.37,0,0,0,331.68,99.6a55.8,55.8,0,0,0,7.81-16.29,65.91,65.91,0,0,0,2.29-17.66,63.42,63.42,0,0,0-5.26-25.88,59,59,0,0,0-14.81-20.34,69,69,0,0,0-22.8-13.21,86.51,86.51,0,0,0-29.17-4.73A83.18,83.18,0,0,0,239.9,6.62a63.3,63.3,0,0,0-22.65,14.56,65.23,65.23,0,0,0-14.42,23,87.54,87.54,0,0,0-5.13,30.43h55.8c.24-6.37,1.78-11.33,4.58-14.76a14.35,14.35,0,0,1,11.66-5.34,14.78,14.78,0,0,1,10.67,4.08,14.4,14.4,0,0,1,4.23,10.82,17.82,17.82,0,0,1-5.16,12.29c-3.36,3.63-9,8.58-16.76,14.72h0L198.25,146Z"></path><path d="M112.38,102.33V73a4.77,4.77,0,0,0-4.52-5H78.5a5,5,0,0,0-4.7,5.18v.54h8.3v28.61H76v21.92h42.42V102.33ZM74.93,72.63a3.57,3.57,0,0,1,7.14,0Zm8.26,1.09v-.54a5.37,5.37,0,0,0-1.84-4.09h26.51A3.68,3.68,0,0,1,111.28,73v29.35H83.19Zm34.16,49.44H77.12V103.42h40.23Z"></path><path d="M94,82.65a1.53,1.53,0,0,1,1.53,1.53.55.55,0,0,0,.55.55.55.55,0,0,0,.54-.55,2.63,2.63,0,0,0-2.07-2.57v-.79a.55.55,0,1,0-1.1,0v.79a2.64,2.64,0,0,0-2.08,2.57,2.46,2.46,0,0,0,2.59,2.62A1.54,1.54,0,0,1,94,89.87h0a1.53,1.53,0,0,1-1.53-1.49.57.57,0,0,0-.57-.53.55.55,0,0,0-.53.56,2.63,2.63,0,0,0,2.08,2.49v.8a.55.55,0,0,0,1.1,0v-.8a2.62,2.62,0,0,0-.57-5.19,1.38,1.38,0,0,1-1.51-1.53A1.52,1.52,0,0,1,94,82.65Z"></path><path d="M101.82,82.65a1.53,1.53,0,0,1,1.54,1.53.55.55,0,0,0,.54.55.55.55,0,0,0,.55-.55,2.64,2.64,0,0,0-2.08-2.57v-.79a.55.55,0,1,0-1.09,0v.79a2.63,2.63,0,0,0-2.08,2.57,2.46,2.46,0,0,0,2.58,2.62,1.53,1.53,0,0,1,1.57,1.49,1.52,1.52,0,0,1-1.48,1.58,1.56,1.56,0,0,1-1.58-1.49.57.57,0,0,0-.56-.53.55.55,0,0,0-.53.56,2.61,2.61,0,0,0,2.08,2.49v.8a.55.55,0,0,0,1.09,0v-.8a2.62,2.62,0,0,0-.56-5.19,1.38,1.38,0,0,1-1.52-1.53A1.53,1.53,0,0,1,101.82,82.65Z"></path></svg>
